<?xml version="1.0" encoding="UTF-8" standalone="no"?>
<!-- Created with Inkscape (http://www.inkscape.org/) -->

<svg
   width="50mm"
   height="50mm"
   viewBox="0 0 50 50"
   version="1.1"
   id="svg1"
   sodipodi:docname="icon.svg"
   inkscape:version="1.3.2 (091e20ef0f, 2023-11-25, custom)"
   xmlns:inkscape="http://www.inkscape.org/namespaces/inkscape"
   xmlns:sodipodi="http://sodipodi.sourceforge.net/DTD/sodipodi-0.dtd"
   xmlns:xlink="http://www.w3.org/1999/xlink"
   xmlns="http://www.w3.org/2000/svg"
   xmlns:svg="http://www.w3.org/2000/svg">
  <sodipodi:namedview
     id="namedview1"
     pagecolor="#ffffff"
     bordercolor="#000000"
     borderopacity="0.25"
     inkscape:showpageshadow="2"
     inkscape:pageopacity="0.0"
     inkscape:pagecheckerboard="0"
     inkscape:deskcolor="#d1d1d1"
     inkscape:document-units="mm"
     inkscape:zoom="0.55336812"
     inkscape:cx="83.127304"
     inkscape:cy="-32.528076"
     inkscape:window-width="1920"
     inkscape:window-height="1052"
     inkscape:window-x="0"
     inkscape:window-y="0"
     inkscape:window-maximized="1"
     inkscape:current-layer="svg1" />
  <defs
     id="defs1">
    <linearGradient
       id="linearGradient5">
      <stop
         style="stop-color:#fff4d5;stop-opacity:1;"
         offset="0"
         id="stop5" />
      <stop
         style="stop-color:#fbfaef;stop-opacity:1;"
         offset="1"
         id="stop6" />
    </linearGradient>
    <radialGradient
       xlink:href="#linearGradient5"
       id="radialGradient6"
       cx="56.456558"
       cy="80.221977"
       fx="56.456558"
       fy="80.221977"
       r="20.631205"
       gradientTransform="matrix(1.6711885,0.41513716,-0.23722216,0.95496859,-54.059619,-78.387423)"
       gradientUnits="userSpaceOnUse" />
  </defs>
  <g
     id="layer1"
     transform="translate(5.0513323,7.0812295)">
    <path
       style="fill:url(#radialGradient6);fill-opacity:1;stroke:#000000;stroke-width:1;stroke-linecap:round;stroke-linejoin:round;stroke-dasharray:none;stroke-dashoffset:24.378;stroke-opacity:1"
       d="m 19.980468,0.5037964 c -0.205078,0.035808 -0.410156,0.071615 -0.615235,0.107422 -0.524739,0.220703 -1.049479,0.441406 -1.574218,0.66211 -0.01107,0.020833 -0.02214,0.041666 -0.0332,0.0625 -0.03918,0.524963 -0.07815,1.049945 -0.117465,1.574896 -0.0024,0.023224 -0.0049,0.046435 -0.0075,0.069635 -0.0089,0.013998 -0.0098,0.031456 -0.01953,0.044922 -0.07445,0.00502 -0.148895,0.011043 -0.223342,0.015436 -0.03632,-0.00368 -0.07301,-3.66e-4 -0.109314,-0.00236 -0.283646,-0.065557 -0.567291,-0.131114 -0.850937,-0.19667 -0.03386,-0.00391 -0.06771,-0.00781 -0.101563,-0.011719 -0.01872,0.00298 -0.03782,0.00614 -0.05664,0.00195 -0.130208,0.01237 -0.260416,0.02474 -0.390624,0.03711 -0.05962,0.016113 -0.119548,0.03133 -0.178791,0.048712 -0.03567,0.013033 -0.07141,0.026271 -0.105515,0.042991 -0.120608,0.066862 -0.243984,0.128538 -0.366148,0.192473 -0.0759,0.039769 -0.152751,0.077749 -0.227167,0.120274 -0.06085,0.033939 -0.121618,0.068036 -0.183772,0.099557 -0.06795,0.034875 -0.134588,0.072248 -0.201273,0.109451 -0.05,0.030284 -0.100641,0.059709 -0.14869,0.093034 -0.04441,0.032537 -0.08814,0.06607 -0.131725,0.099686 -0.02099,0.018736 -0.04334,0.035961 -0.0641,0.054903 -0.02635,0.026688 -0.05545,0.050468 -0.08423,0.074466 -0.01813,0.00909 -0.03769,0.016958 -0.05078,0.033203 -0.05119,0.045728 -0.102628,0.091262 -0.150391,0.140625 -0.09348,0.090893 -0.18746,0.181312 -0.277684,0.275469 -0.04654,0.047663 -0.09443,0.094002 -0.142035,0.140577 -0.05145,0.057542 -0.09808,0.119181 -0.149181,0.177033 -0.04149,0.0484 -0.08297,0.096801 -0.124459,0.145202 -0.0087,0.019 -0.01875,0.037423 -0.0332,0.052734 -0.01888,0.022787 -0.03776,0.045573 -0.05664,0.06836 -0.05078,0.11914 -0.101562,0.238281 -0.152344,0.357421 -0.08736,0.302963 -0.17522,0.605799 -0.262263,0.90884 -0.0088,0.034653 -0.01155,0.070358 -0.01305,0.105974 -0.0046,0.084905 -0.0093,0.169802 -0.01375,0.254718 0.0018,0.016781 0.0056,0.033097 0.01172,0.048828 0.06315,0.224609 0.126302,0.449219 0.189453,0.673828 -0.01628,0.032552 -0.03255,0.065104 -0.04883,0.097656 -0.02334,0.010436 -0.04658,0.022123 -0.07227,0.025391 -0.2064,0.044828 -0.412606,0.09056 -0.61914,0.134765 -0.05582,0.010532 -0.112642,0.014144 -0.168963,0.021161 -0.06087,0.00703 -0.121902,0.012961 -0.182604,0.021235 -0.09887,0.01743 -0.198018,0.033321 -0.296817,0.051079 -0.04406,0.00891 -0.0877,0.019516 -0.131034,0.031454 -0.219069,0.057275 -0.438303,0.113956 -0.65729,0.17152 -0.09473,0.028812 -0.189728,0.056781 -0.284514,0.085357 -0.107042,0.041176 -0.214378,0.081627 -0.321238,0.123256 -0.06028,0.02592 -0.120983,0.050944 -0.181003,0.077423 -0.078582,0.039283 -0.1558669,0.081076 -0.2322929,0.124392 -0.078933,0.043771 -0.156906,0.089253 -0.234558,0.13524 -0.128076,0.080536 -0.256272,0.160906 -0.383442,0.242861 -0.042601,0.029068 -0.086298,0.056505 -0.1295,0.084622 -0.029707,0.023691 -0.060373,0.046374 -0.089489,0.070684 -0.024762,0.02981 -0.051274,0.058026 -0.078157,0.08591 -0.020898,0.02343 -0.041795,0.046861 -0.062692,0.070291 -0.063054,0.148813 -0.126651,0.297409 -0.189366,0.446358 -0.03561,0.09512 -0.072007,0.189969 -0.107128,0.285257 -0.01757,0.056388 -0.036254,0.112586 -0.047256,0.170729 -0.014957,0.06518 -0.024201,0.131477 -0.03577,0.197306 -0.01862,0.1152736 -0.038285,0.2303896 -0.056243,0.3457626 -0.017506,0.12692 -0.035012,0.253839 -0.052519,0.380759 0.00782,0.05631 0.014532,0.11294 0.029297,0.167969 0.019532,0.08984 0.039063,0.179687 0.058594,0.269531 0.011865,0.0306 0.023466,0.06132 0.038702,0.09045 0.056567,0.113735 0.118335,0.224784 0.178085,0.336862 0.036711,0.06871 0.074094,0.137096 0.110387,0.206 0.024245,0.05783 0.046978,0.116262 0.068765,0.175062 0.019826,0.05304 0.040445,0.105842 0.059781,0.15904 0.00315,0.01489 6.34e-4,0.03105 -0.00529,0.04498 -0.011834,0.0301 -0.037304,0.05261 -0.048089,0.08332 -0.030121,0.04514 -0.061263,0.08963 -0.089855,0.135759 -0.010492,0.01127 -0.020231,0.0233 -0.02917,0.03596 -0.012146,0.01351 -0.028409,0.02269 -0.044479,0.03072 -0.036055,0.01726 -0.072918,0.03266 -0.109947,0.0477 -0.122248,0.05028 -0.245493,0.09811 -0.368128,0.147435 -0.243129,0.09683 -0.486012,0.194276 -0.729296,0.290708 -0.064226,0.02485 -0.128331,0.05054 -0.188917,0.08349 -0.103845,0.05568 -0.208667,0.109506 -0.313255,0.163777 -0.123811,0.07528 -0.247994,0.149977 -0.371573,0.225617 -0.074702,0.05139 -0.151527,0.09957 -0.226614,0.150387 -0.062021,0.04069 -0.120118,0.08706 -0.182667,0.126987 -0.059234,0.03851 -0.114782,0.0823 -0.172762,0.122639 -0.042549,0.03304 -0.08372,0.06789 -0.125863,0.10147 -0.01908,0.01545 -0.03816,0.03089 -0.05724,0.04634 -0.00989,0.0164 -0.021722,0.03129 -0.035156,0.04492 -0.03293,0.0444 -0.064222,0.08998 -0.09375,0.136719 -0.019417,0.03802 -0.036757,0.07707 -0.051099,0.11729 -0.042621,0.112968 -0.092899,0.222838 -0.136608,0.335375 -0.044484,0.11145 -0.087125,0.22363 -0.130508,0.335511 -0.012906,0.03466 -0.025525,0.06941 -0.035067,0.10517 -0.00938,0.03228 -0.019892,0.06451 -0.022543,0.09821 -0.012795,0.07652 -0.021786,0.153605 -0.033843,0.230244 -0.00765,0.05659 -0.016479,0.11308 -0.020346,0.17009 -0.00664,0.07661 -0.012616,0.153303 -0.019678,0.229855 -0.00655,0.02692 -0.0042,0.05577 0.0068,0.08121 0.00688,0.02916 0.00964,0.05934 0.016437,0.08862 0.00754,0.03977 0.017283,0.07908 0.026061,0.118587 0.046037,0.104271 0.091641,0.20875 0.137947,0.312891 0.027919,0.05635 0.064094,0.108045 0.093675,0.163498 0.01161,0.01901 0.015669,0.04139 0.023759,0.06197 0.012536,0.0376 0.026188,0.07491 0.038023,0.112688 0.0041,0.01542 -0.00386,0.03069 -0.00969,0.04453 -0.016698,0.02572 -0.033863,0.05138 -0.048223,0.07842 -0.00328,0.01598 -0.014506,0.0275 -0.026096,0.03809 -0.015386,0.01442 -0.035317,0.02197 -0.055486,0.02683 -0.044586,0.01396 -0.091056,0.02033 -0.137062,0.02767 -0.16341,0.02146 -0.32704,0.0414 -0.490171,0.06488 -0.084523,0.01461 -0.169319,0.02814 -0.253035,0.04691 -0.09469,0.02321 -0.189605,0.04556 -0.28464,0.06729 -0.043944,0.0079 -0.086375,0.02214 -0.128063,0.03786 -0.07647,0.02801 -0.153365,0.05495 -0.22957,0.08364 -0.076157,0.03194 -0.151547,0.06575 -0.228539,0.09565 -0.024498,0.0097 -0.046744,0.02411 -0.070726,0.035 -0.043007,0.02093 -0.083348,0.04685 -0.126079,0.06835 -0.03412,0.0179 -0.064867,0.0415 -0.098443,0.0604 -0.118098,0.07077 -0.234787,0.143894 -0.350468,0.218537 -0.067603,0.04607 -0.135346,0.09204 -0.200855,0.141057 -0.013712,0.01 -0.026461,0.02096 -0.037128,0.03419 -0.060414,0.06639 -0.120827,0.13279 -0.18124,0.199184 -0.033049,0.05136 -0.066635,0.102468 -0.095064,0.156594 -0.111651,0.19549 -0.223761,0.390729 -0.335126,0.586375 -0.014793,0.02869 -0.030714,0.05707 -0.042,0.08735 -0.063496,0.185029 -0.127382,0.369935 -0.190633,0.55504 -0.01865,0.06481 -0.03585,0.130024 -0.052821,0.195286 -0.012754,0.04017 -0.025508,0.08035 -0.038262,0.120525 1.79e-4,0.02421 0.00106,0.04876 -0.00586,0.07227 -0.00946,0.05975 -0.017932,0.11965 -0.02539,0.179687 -0.00423,0.02195 -0.00958,0.04411 -0.00946,0.06653 0.00318,0.09442 0.00869,0.188732 0.013367,0.283084 0.014574,0.06665 0.029822,0.13317 0.041484,0.200415 0.017567,0.09374 0.034613,0.187576 0.054657,0.280826 0.017086,0.08055 0.034918,0.160932 0.052296,0.241415 0.032371,0.08172 0.062474,0.16433 0.096162,0.245532 0.037135,0.09199 0.071267,0.185147 0.105058,0.278409 0.040139,0.110033 0.08006,0.220156 0.118975,0.330625 0.017602,0.0515 0.035234,0.103073 0.049753,0.155533 0.0067,0.02534 0.014994,0.05034 0.017513,0.07658 0.00899,0.05906 0.015937,0.118442 0.028101,0.176971 0.00765,0.04469 0.019652,0.08864 0.025845,0.133523 0.00183,0.02343 -0.013001,0.04328 -0.023459,0.06299 -0.040248,0.07366 -0.089312,0.141948 -0.132791,0.213657 -0.045655,0.06262 -0.095128,0.122338 -0.142578,0.183594 -0.16796,0.130165 -0.336141,0.260058 -0.503962,0.390394 -0.080643,0.06948 -0.162006,0.138141 -0.242191,0.208141 -0.056988,0.05104 -0.113423,0.102688 -0.168779,0.1555 -0.028938,0.02558 -0.052,0.0568 -0.077872,0.08532 -0.058835,0.06799 -0.11819597,0.135565 -0.17670297,0.203814 -0.024557,0.03776 -0.057383,0.06881 -0.088111,0.101387 -0.011318,0.01211 -0.022885,0.02484 -0.026553,0.0415 -0.036848,0.09452 -0.074694,0.188671 -0.110916,0.283429 -0.014882,0.04293 -0.031561,0.08529 -0.045279,0.128594 -0.016815,0.06087 -0.034771,0.121468 -0.050874,0.182507 -0.012615,0.06459 -0.025436,0.129142 -0.035273,0.194228 -0.012803,0.07711 -0.021384,0.154856 -0.032279,0.232254 -0.009191,0.07123 -0.019686,0.142314 -0.028053,0.213633 -0.004906,0.05703 -0.009812,0.114064 -0.014718,0.171096 0.005949,0.0142 0.007727,0.02992 0.003906,0.04492 -5.88e-4,0.02758 2.58e-4,0.05509 0.003438,0.08251 0.005632,0.05315 0.010645,0.106345 0.01414,0.15968 0.010052,0.02877 0.016275,0.05915 0.03125,0.08594 0.008844,0.0251 0.020041,0.04915 0.032434,0.07268 0.023579,0.04481 0.041503,0.09225 0.062516,0.138277 0.019997,0.04479 0.04167,0.08887 0.064536,0.132252 0.016496,0.0296 0.032663,0.05939 0.052434,0.08698 0.029217,0.04446 0.062926,0.08574 0.094201,0.128747 0.064967,0.08656 0.129204,0.173679 0.19463097,0.25988 0.048248,0.05975 0.095407,0.120396 0.144355,0.179561 0.060374,0.07013 0.120399,0.140594 0.180983,0.21053 0.040577,0.03937 0.076451,0.08336 0.117324,0.122396 0.057067,0.05114 0.11188,0.104724 0.167915,0.156983 0.105879,0.06096 0.211733,0.121998 0.318359,0.18164 0.036013,0.01288 0.070734,0.02914 0.105847,0.04422 0.071694,0.03826 0.143039,0.07718 0.214465,0.115937 0.022978,0.01914 0.043241,0.04157 0.061756,0.06485 0.011967,0.0233 0.023934,0.04661 0.035901,0.06991 -0.00128,0.0145 0.00623,0.02951 -0.00195,0.04297 -0.010468,0.01603 -0.013276,0.03561 -0.021625,0.05275 -0.014149,0.03513 -0.029229,0.06996 -0.046249,0.10375 -0.01008,0.01596 -0.023247,0.03024 -0.038153,0.04166 -0.024281,0.0146 -0.045076,0.0341 -0.068302,0.05027 -0.037641,0.02622 -0.07601,0.05147 -0.114484,0.07646 -0.042979,0.0264 -0.084924,0.05438 -0.126306,0.08322 -0.057052,0.03758 -0.115361,0.07326 -0.171319,0.112505 -0.070249,0.04776 -0.140388,0.09573 -0.208356,0.146709 -0.037015,0.02632 -0.070936,0.05665 -0.10572,0.08578 -0.046998,0.04043 -0.087977,0.08718 -0.131547,0.131162 -0.01705,0.0173 -0.033221,0.03561 -0.051664,0.05137 -0.010046,0.01161 -0.019834,0.02382 -0.023697,0.03898 -0.00765,0.02242 -0.017137,0.04443 -0.023657,0.06709 -0.00143,0.02112 -0.00576,0.04208 -0.00281,0.0633 0.00249,0.02842 0.00112,0.05695 -0.00314,0.08513 -0.012896,0.108848 -0.02551,0.217733 -0.035589,0.326884 -0.0022,0.02513 -0.00716,0.05021 -0.00664,0.07544 0.00395,0.01474 -0.0045,0.02928 -0.00239,0.04426 -0.00675,0.04134 -0.00607,0.08326 -0.00586,0.125 -0.00614,0.01791 0.00436,0.03606 0.00865,0.05329 0.011136,0.03474 0.023085,0.06918 0.037364,0.102759 0.00652,0.01434 0.00886,0.03045 0.019041,0.04296 0.023287,0.03225 0.046968,0.06427 0.070349,0.09645 0.028732,0.03596 0.056698,0.07254 0.084837,0.108945 0.054589,0.06408 0.109533,0.127854 0.165892,0.190391 0.037411,0.04181 0.074331,0.08411 0.111899,0.125752 0.215077,0.1997 0.429496,0.40011 0.645765,0.598519 0.116172,0.107322 0.233291,0.213627 0.34783,0.3227 0.024208,0.02381 0.050152,0.04581 0.07723,0.06624 0.057227,0.03761 0.113631,0.07652 0.16759,0.11872 0.040555,0.03021 0.079865,0.06255 0.123384,0.08842 0.090917,0.04274 0.180925,0.08742 0.271483,0.130931 0.064692,0.03129 0.129043,0.06332 0.195004,0.09189 0.074896,0.03331 0.149344,0.06768 0.224525,0.100325 0.042276,0.01735 0.084863,0.03387 0.128233,0.0483 0.085361,0.02987 0.170544,0.06036 0.257245,0.08618 0.093004,0.02829 0.18527,0.05912 0.279005,0.08494 0.028673,0.0076 0.057349,0.01527 0.086837,0.01907 0.044038,0.0075 0.088322,0.0138 0.132745,0.01822 0.015337,0.0021 0.030769,-0.0045 0.046379,-0.0028 0.031852,-2.21e-4 0.063751,0.0052 0.095515,0.0033 0.040401,-0.0084 0.081591,-0.01251 0.12232,-0.01912 0.052767,-0.0078 0.105534,-0.01552 0.158301,-0.02328 0.165365,-0.05996 0.330978,-0.119256 0.496188,-0.179627 0.126921,-0.0495 0.253843,-0.099 0.380765,-0.148498 0.025935,-0.0018 0.049249,0.01158 0.072265,0.02148 0.015641,0.0038 0.027416,0.01552 0.041705,0.02241 0.020604,0.01206 0.041207,0.02412 0.061811,0.03618 0.010439,0.01832 0.023196,0.03668 0.023437,0.05859 0.010398,0.04617 0.021572,0.09234 0.025283,0.139654 0.00627,0.0561 0.00664,0.112622 0.00987,0.16894 6.31e-4,0.02911 -3.62e-4,0.05815 -0.00367,0.0871 -0.00567,0.06464 -0.010331,0.12936 -0.01391,0.194154 0.00689,0.05011 0.020181,0.09903 0.031222,0.148325 0.018889,0.07556 0.037779,0.151116 0.056668,0.226675 0.045673,0.08834 0.095037,0.174688 0.142277,0.262188 0.052558,0.09569 0.1044,0.191794 0.157405,0.287219 0.062216,0.09942 0.124431,0.198833 0.186646,0.298249 0.010362,0.01225 0.023251,0.02136 0.037498,0.02858 0.023297,0.01206 0.046061,0.02596 0.071877,0.03197 0.077184,0.02856 0.153333,0.06007 0.231651,0.08544 0.064443,0.01821 0.128703,0.03728 0.193473,0.0542 0.088145,0.0162 0.176135,0.03335 0.264378,0.04895 0.150781,0.02165 0.301999,0.04002 0.453076,0.05945 0.029317,-0.0077 0.058831,-0.01537 0.085938,-0.0293 0.057363,-0.02394 0.11509,-0.04716 0.171575,-0.07309 0.079102,-0.04036 0.159479,-0.07814 0.240534,-0.114407 0.041592,-0.0202 0.082512,-0.04167 0.122695,-0.06455 0.060596,-0.03376 0.121052,-0.06786 0.179624,-0.105059 0.07717,-0.04783 0.154384,-0.09562 0.232296,-0.142221 0.020736,-0.01263 0.042658,-0.02295 0.065606,-0.03086 0.100413,-0.03837 0.199427,-0.08032 0.299331,-0.119925 0.014223,-0.0052 0.029364,-0.0095 0.044449,-0.0095 0.027119,0.0048 0.052576,0.01594 0.078462,0.02495 0.061222,0.02431 0.119333,0.05553 0.178709,0.0839 0.031755,0.01675 0.064333,0.03227 0.09316,0.05392 0.018446,0.01215 0.036423,0.02507 0.051261,0.04157 0.042079,0.04152 0.084998,0.08216 0.128926,0.121719 0.1145749,0.107583 0.2293209,0.214996 0.3434889,0.32301 0.03476,0.03325 0.0689,0.06724 0.104049,0.100022 0.05267,0.03854 0.105348,0.07708 0.158021,0.115625 0.04701,0.02255 0.09549,0.04241 0.140566,0.06871 0.0675,0.04097 0.139652,0.07344 0.20984,0.109418 0.07157,0.03609 0.141962,0.07456 0.215031,0.107613 0.0439,0.02164 0.09059,0.0367 0.135938,0.05493 0.237376,0.09147 0.47544,0.181152 0.713238,0.271511 0.05432,0.01825 0.10825,0.03786 0.163183,0.05417 0.04441,0.01329 0.08991,0.02221 0.134952,0.03295 0.02927,0.0091 0.06016,0.01001 0.09024,0.0151 0.0741,0.009 0.148502,0.01556 0.222701,0.0238 0.06349,0.0063 0.126977,0.01285 0.190746,0.01546 0.136873,0.008 0.273674,0.01716 0.410519,0.02563 0.148483,0.02408 0.296838,0.04901 0.445402,0.07256 0.05856,0.0084 0.117128,0.01673 0.175691,0.0251 0.126953,-0.01953 0.253906,-0.03906 0.38086,-0.05859 0.193848,-0.07536 0.387016,-0.152519 0.578569,-0.233541 0.128991,-0.0604 0.258234,-0.120282 0.387068,-0.180999 0.122029,-0.06279 0.243528,-0.12663 0.365908,-0.188733 0.05175,-0.02583 0.103454,-0.05185 0.15579,-0.07643 0.05352,-0.0212 0.106761,-0.04328 0.16087,-0.06289 0.05146,-0.01746 0.104696,-0.02863 0.156853,-0.04366 0.04598,-0.01396 0.09297,-0.02604 0.140947,-0.03016 0.02439,-0.0012 0.0466,0.01121 0.06961,0.01758 0.221824,0.08231 0.443337,0.165516 0.665168,0.247817 0.06336,0.02175 0.126471,0.04427 0.190803,0.06303 0.0465,0.01357 0.09221,0.02973 0.138646,0.04341 0.09333,0.02397 0.185875,0.05102 0.279849,0.07243 0.04011,0.01016 0.08051,0.01892 0.121291,0.02594 0.08105,0.01522 0.16213,0.03033 0.24294,0.04673 0.07147,0.01199 0.143372,0.0212 0.214863,0.03307 0.06455,0.0099 0.129835,0.0138 0.194743,0.02071 0.088,0.0084 0.175988,0.0171 0.264205,0.02303 0.05445,0.0059 0.108795,0.01306 0.163548,0.01559 0.06737,0.0043 0.134871,0.0062 0.202228,0.01077 0.07339,0.0042 0.146774,0.0085 0.220161,0.0127 0.09088,-0.01477 0.182152,-0.0276 0.272132,-0.04736 0.137805,-0.02588 0.27561,-0.05176 0.413415,-0.07764 0.04441,-0.01421 0.08911,-0.02789 0.131343,-0.04791 0.137072,-0.05807 0.274419,-0.115528 0.410799,-0.17521 0.178902,-0.07949 0.358082,-0.15838 0.53681,-0.238236 0.03784,-0.01828 0.07335,-0.04099 0.108969,-0.06318 0.08377,-0.05931 0.169886,-0.115198 0.254746,-0.172917 0.154057,-0.103876 0.308731,-0.206843 0.461585,-0.31249 0.07961,-0.05487 0.159773,-0.108954 0.239033,-0.164312 0.160572,-0.118349 0.321143,-0.236699 0.481715,-0.355048 0.02216,-0.02902 0.04311,-0.05889 0.0625,-0.08984 0.01042,-0.01302 0.02083,-0.02604 0.03125,-0.03906 0.02451,-0.0068 0.04925,-0.0127 0.07422,-0.01758 0.01699,0.0026 0.03532,0.0037 0.04883,0.01563 0.09279,0.06752 0.186252,0.134114 0.278602,0.202219 0.03548,0.02667 0.0712,0.05304 0.104229,0.08275 0.07822,0.07022 0.157926,0.138809 0.236145,0.209009 0.01797,0.01712 0.03438,0.03609 0.05333,0.05203 0.02565,0.01613 0.04481,0.04005 0.06785,0.05938 0.03033,0.03079 0.06162,0.0607 0.09136,0.09204 0.06276,0.07543 0.125327,0.151014 0.189884,0.224916 0.06788,0.07957 0.13852,0.156718 0.209072,0.233909 0.02952,0.01779 0.05854,0.03657 0.08838,0.05376 0.128418,0.0546 0.257682,0.10719 0.38776,0.157708 0.214652,0.08407 0.428644,0.169808 0.643621,0.253045 0.0879,0.03415 0.175619,0.06884 0.263636,0.102654 0.03269,0.01199 0.06798,0.0101 0.101708,0.01715 0.05807,0.01059 0.117045,0.01437 0.175639,0.02098 0.217179,0.02225 0.43438,0.04428 0.651441,0.06767 0.156356,0.01656 0.312712,0.03313 0.469069,0.04969 0.05266,-0.0035 0.105466,-0.0014 0.158203,-0.002 0.03297,-0.006 0.06578,-0.01575 0.09961,-0.01367 0.07598,-0.01354 0.152159,-0.02588 0.228516,-0.03711 0.157846,-0.05853 0.315839,-0.116678 0.472998,-0.177044 0.209826,-0.07959 0.418695,-0.161676 0.628083,-0.242409 0.113608,-0.04423 0.227653,-0.0874 0.340339,-0.133938 0.06235,-0.02598 0.123297,-0.05521 0.184107,-0.08457 0.02888,-0.01461 0.05853,-0.02786 0.08522,-0.04638 0.04191,-0.0263 0.08408,-0.05223 0.124221,-0.08121 0.05124,-0.0356 0.103319,-0.07007 0.151909,-0.109303 0.04531,-0.03544 0.09357,-0.06687 0.142029,-0.0978 0.141967,-0.113204 0.284653,-0.22551 0.42612,-0.339337 0.06132,-0.04924 0.121988,-0.09934 0.183703,-0.148046 0.06255,-0.0429 0.124596,-0.08667 0.187465,-0.129035 0.02055,-0.0096 0.0402,-0.02144 0.0613,-0.02963 0.03673,-0.01109 0.07337,-0.02252 0.111105,-0.02972 0.06487,-0.01465 0.129638,-0.02971 0.194373,-0.04493 0.02989,-0.0018 0.05844,0.0094 0.0882,0.0096 0.0181,0.0038 0.03254,0.01669 0.04935,0.02398 0.01348,0.0087 0.02353,0.0225 0.03777,0.03113 0.02907,0.02303 0.05448,0.05033 0.08167,0.07552 0.02075,0.02052 0.04282,0.03984 0.06276,0.0611 0.0162,0.01998 0.03343,0.0394 0.04502,0.06254 0.05159,0.07609 0.103177,0.152186 0.154766,0.228279 0.0438,0.04218 0.08343,0.08841 0.126953,0.13086 0.09369,0.06162 0.188767,0.121082 0.283463,0.181137 0.0191,0.01191 0.03733,0.02565 0.05696,0.03644 0.04743,0.01472 0.09478,0.03022 0.143839,0.03865 0.04796,0.0088 0.09588,0.01817 0.144067,0.0254 0.01723,7.77e-4 0.0343,0.0031 0.05136,0.0055 0.0219,-0.0046 0.04403,-0.0073 0.06641,-0.0078 0.03319,-0.0032 0.06628,-0.007 0.09897,-0.01377 0.057,-0.009 0.114296,-0.01624 0.171249,-0.02551 0.06925,-0.0048 0.13792,-0.01541 0.20691,-0.02286 0.08814,-0.01071 0.176434,-0.02021 0.264466,-0.03168 0.02967,-0.0048 0.0596,-0.0087 0.08903,-0.01447 0.07923,-0.02684 0.158026,-0.05497 0.236931,-0.08273 0.03331,-0.01077 0.06753,-0.01901 0.09948,-0.03358 0.13195,-0.0521 0.264169,-0.103516 0.39677,-0.153941 0.04277,-0.01654 0.08495,-0.03467 0.128014,-0.05039 0.05267,-0.02695 0.107831,-0.04862 0.161696,-0.07304 0.07378,-0.0307 0.147593,-0.06131 0.220365,-0.09434 0.09952,-0.04394 0.198987,-0.08807 0.299616,-0.129424 0.06717,-0.03176 0.135647,-0.06078 0.20227,-0.09367 0.04788,-0.02595 0.09684,-0.04988 0.144723,-0.07581 0.04393,-0.02499 0.08864,-0.04895 0.12912,-0.07941 0.04829,-0.03205 0.0958,-0.06525 0.142826,-0.09912 0.01591,-0.01038 0.03246,-0.02029 0.04398,-0.03581 0.02608,-0.03158 0.05099,-0.06412 0.07872,-0.09431 0.02771,-0.03001 0.03833,-0.07054 0.05347,-0.107479 0.02673,-0.07136 0.05973,-0.140153 0.08988,-0.210099 0.0629,-0.140795 0.122989,-0.282813 0.184396,-0.424256 0.0206,-0.04548 0.03925,-0.0919 0.06342,-0.135659 0.01624,-0.03255 0.02932,-0.06662 0.04647,-0.09876 0.06268,-0.125786 0.124202,-0.252147 0.186463,-0.378135 0.05218,-0.102965 0.111708,-0.201949 0.168103,-0.302616 0.04554,-0.07879 0.0884,-0.159198 0.137027,-0.236155 0.02053,-0.03114 0.04041,-0.06278 0.06306,-0.09245 0.01544,-0.01421 0.03357,-0.02515 0.05124,-0.03625 0.04819,-0.02195 0.0987,-0.03823 0.147982,-0.0575 0.03992,-0.01375 0.07926,-0.02935 0.119578,-0.04188 0.07327,-0.01971 0.146123,-0.04093 0.218927,-0.06228 0.110783,-0.02856 0.222951,-0.05126 0.334511,-0.07651 0.124606,-0.02804 0.249723,-0.05381 0.374361,-0.08167 0.03448,-0.0082 0.06865,-0.01766 0.102969,-0.02641 0.07799,-0.01683 0.155848,-0.03437 0.233582,-0.05235 0.0233,-0.0064 0.0473,-0.01069 0.07016,-0.01838 0.03601,-0.01607 0.07339,-0.02883 0.108645,-0.04657 0.186218,-0.08721 0.368864,-0.181773 0.554038,-0.271146 0.04503,-0.02232 0.09073,-0.04355 0.135359,-0.06655 0.03127,-0.02492 0.06682,-0.04345 0.100422,-0.06485 0.03782,-0.02486 0.07241,-0.05425 0.108764,-0.08116 0.05242,-0.0396 0.103623,-0.08086 0.157821,-0.118044 0.02259,-0.01889 0.04773,-0.0352 0.0677,-0.05691 0.01254,-0.01573 0.02359,-0.03285 0.03992,-0.04504 0.0118,-0.01585 0.02256,-0.03278 0.03441,-0.04873 0.04931,-0.07723 0.09237,-0.158182 0.13727,-0.237991 0.01782,-0.04059 0.03141,-0.08291 0.04744,-0.124226 0.04841,-0.130883 0.09759,-0.261505 0.145526,-0.392551 0.02579,-0.0847 0.05258,-0.169137 0.07775,-0.254006 0.01847,-0.08037 0.03717,-0.160735 0.05332,-0.241605 0.01829,-0.10785 0.03658,-0.2157 0.05487,-0.32355 -0.01403,-0.06898 -0.02288,-0.138871 -0.03391,-0.208369 -0.0065,-0.04567 -0.01206,-0.09146 -0.01687,-0.137334 -0.02059,-0.06285 -0.04202,-0.125432 -0.06643,-0.186918 -0.03756,-0.09796 -0.07455,-0.196168 -0.112463,-0.293978 -0.01666,-0.03469 -0.03308,-0.06949 -0.05286,-0.102547 -0.0086,-0.01305 -0.01437,-0.02737 -0.01965,-0.04185 -0.0139,-0.02097 -0.02357,-0.04459 -0.04044,-0.06352 -0.03033,-0.04011 -0.06122,-0.07978 -0.09387,-0.118047 -0.03129,-0.03697 -0.05984,-0.07619 -0.09259,-0.111935 -0.03337,-0.0387 -0.06654,-0.07759 -0.09983,-0.116362 -0.03412,-0.06893 -0.07178,-0.137208 -0.09088,-0.21222 -0.01106,-0.05498 -0.0225,-0.109873 -0.03412,-0.164733 0.0043,-0.04126 0.0239,-0.07867 0.03846,-0.116956 0.02008,-0.04998 0.04256,-0.09898 0.06233,-0.149083 0.008,-0.01355 0.01181,-0.03019 0.02421,-0.0406 0.01289,-0.01431 0.01749,-0.03372 0.02634,-0.05052 0.01889,-0.04033 0.03517,-0.08192 0.05447,-0.122011 0.01609,-0.02769 0.03349,-0.05507 0.04322,-0.08579 0.0068,-0.01456 0.01472,-0.02861 0.02073,-0.04361 0.01031,-0.02419 0.02738,-0.04476 0.03813,-0.06879 0.02418,-0.04721 0.05383,-0.09141 0.07914,-0.137967 0.01154,-0.02576 0.02532,-0.05062 0.0354,-0.07697 0.01016,-0.03183 0.02634,-0.06142 0.035,-0.0938 0.0217,-0.07079 0.04465,-0.141205 0.06553,-0.212227 0.03308,-0.120176 0.0616,-0.241533 0.09229,-0.362329 0.01163,-0.04847 0.02583,-0.09637 0.03341,-0.145713 0.01711,-0.09531 0.03507,-0.19048 0.05165,-0.285873 0.0133,-0.09504 0.02661,-0.190072 0.03992,-0.285108 -0.0056,-0.04898 -0.0099,-0.09825 -0.01643,-0.147053 -0.01915,-0.05942 -0.03661,-0.119419 -0.05913,-0.177689 -0.02694,-0.07102 -0.04954,-0.143569 -0.07564,-0.214887 -0.02031,-0.06506 -0.04414,-0.128958 -0.06659,-0.193293 -0.02721,-0.06832 -0.05511,-0.136344 -0.08458,-0.203719 -0.02558,-0.05991 -0.04912,-0.120883 -0.08119,-0.177743 -0.01786,-0.03292 -0.03314,-0.06721 -0.05337,-0.09881 -0.0467,-0.07758 -0.09536,-0.153943 -0.145554,-0.229303 -0.0804,-0.122093 -0.160172,-0.244631 -0.240977,-0.366446 -0.05355,-0.07214 -0.106447,-0.144785 -0.160399,-0.216605 -0.03282,-0.03882 -0.06458,-0.07861 -0.09805,-0.11682 -0.02673,-0.02611 -0.05347,-0.05222 -0.0802,-0.07833 -0.114537,-0.06138 -0.229469,-0.122035 -0.342888,-0.185475 -0.0687,-0.03833 -0.138014,-0.07555 -0.2069,-0.113509 -0.02921,-0.01707 -0.05792,-0.03516 -0.08744,-0.0516 -0.107253,-0.04264 -0.214506,-0.08529 -0.32176,-0.127929 -0.01439,-0.02699 -0.02976,-0.05394 -0.0369,-0.08394 -0.0209,-0.06968 -0.04181,-0.139355 -0.06271,-0.209032 -3.8e-5,-0.01979 0.0099,-0.03729 0.01482,-0.05595 0.01039,-0.04278 0.02317,-0.08497 0.03401,-0.127647 0.02134,-0.05713 0.04363,-0.113923 0.06193,-0.172127 0.03032,-0.09247 0.06353,-0.184004 0.0911,-0.277361 0.0291,-0.0974 0.06318,-0.193194 0.09494,-0.289737 0.03846,-0.115835 0.07797,-0.231334 0.115766,-0.347385 0.01751,-0.05665 0.03574,-0.113121 0.0528,-0.169891 0.008,-0.03648 0.01383,-0.07333 0.01776,-0.11046 0.0079,-0.06887 0.01622,-0.137703 0.02069,-0.206897 0.0066,-0.08169 0.01007,-0.163601 0.01458,-0.245426 0.0093,-0.196468 0.01534,-0.393067 0.02265,-0.589612 0.0017,-0.09026 0.0023,-0.180521 0.0019,-0.270792 0.0013,-0.02664 0.0037,-0.05355 8.04e-4,-0.08012 -0.0079,-0.05157 -0.01451,-0.103422 -0.02312,-0.154815 -0.02654,-0.07953 -0.05219,-0.159392 -0.07929,-0.238716 -0.01372,-0.03439 -0.02756,-0.06883 -0.04605,-0.100986 -0.129818,-0.262231 -0.259635,-0.524461 -0.389452,-0.786692 -0.0299,-0.03544 -0.06157,-0.06971 -0.08594,-0.109375 -0.02392,-0.03234 -0.04792,-0.06469 -0.07573,-0.09385 -0.117552,-0.135143 -0.232527,-0.272495 -0.348864,-0.408681 -0.0851,-0.09992 -0.170006,-0.200193 -0.255209,-0.299908 -0.02374,-0.01844 -0.05305,-0.02761 -0.07982,-0.04075 -0.06692,-0.02828 -0.135161,-0.05341 -0.203078,-0.07921 -0.154868,-0.05726 -0.310668,-0.111997 -0.46485,-0.171105 -0.09275,-0.03513 -0.18587,-0.06928 -0.277631,-0.106936 -0.08028,-0.03231 -0.161097,-0.06329 -0.240628,-0.09744 -0.05176,-0.0206 -0.102761,-0.04314 -0.153018,-0.06714 -0.06365,-0.03385 -0.128641,-0.06523 -0.190747,-0.101924 -0.04441,-0.02437 -0.08711,-0.05163 -0.130347,-0.07799 -0.01708,-0.01831 -0.01956,-0.04439 -0.0273,-0.06723 -0.01787,-0.06183 -0.03439,-0.124166 -0.04671,-0.187353 -0.003,-0.02082 -0.0084,-0.04143 -0.0085,-0.06248 -0.0042,-0.01531 -0.0057,-0.03054 -0.0084,-0.04618 -0.0056,-0.02962 -0.01179,-0.05934 -0.01458,-0.08931 -2.65e-4,-0.0149 0.0066,-0.02942 0.0016,-0.04421 -0.0038,-0.02265 -0.0039,-0.04549 -0.0037,-0.06838 -0.0045,-0.159926 -0.0091,-0.319852 -0.0136,-0.479777 -0.0088,-0.0561 -0.01763,-0.112187 -0.02937,-0.167759 -0.01495,-0.07624 -0.0299,-0.152484 -0.04485,-0.228726 -0.02795,-0.06731 -0.04836,-0.137393 -0.07041,-0.206778 -0.01349,-0.04278 -0.02647,-0.08577 -0.04098,-0.128196 -0.01619,-0.03923 -0.03277,-0.07831 -0.04585,-0.118724 -0.01242,-0.03836 -0.03005,-0.07479 -0.04818,-0.110728 -0.03289,-0.06073 -0.06268,-0.123095 -0.09717,-0.182952 -0.01999,-0.03516 -0.03459,-0.07341 -0.05875,-0.106137 -0.02792,-0.0446 -0.05414,-0.09032 -0.08322,-0.134167 -0.03962,-0.05696 -0.07823,-0.114645 -0.118471,-0.17115 -0.05017,-0.06636 -0.09963,-0.133339 -0.154014,-0.19636 -0.07088,-0.08473 -0.141767,-0.169455 -0.21265,-0.254183 -0.01706,-0.01348 -0.03281,-0.02832 -0.04687,-0.04492 -0.04018,-0.03114 -0.07953,-0.06354 -0.123081,-0.08997 -0.03299,-0.02047 -0.06508,-0.04283 -0.101267,-0.05746 -0.04449,-0.0207 -0.08894,-0.04147 -0.134687,-0.05926 -0.07236,-0.02928 -0.14545,-0.05673 -0.217166,-0.08759 -0.08468,-0.03519 -0.170692,-0.0671 -0.255954,-0.100863 -0.08025,-0.03079 -0.159657,-0.06385 -0.241035,-0.09162 -0.126221,-0.04516 -0.252954,-0.0889 -0.379174,-0.134046 -0.02777,-0.0031 -0.05512,-0.0097 -0.08315,-0.01111 -0.1054,-0.01022 -0.210916,-0.01938 -0.31605,-0.03215 -0.138671,-0.04687 -0.277343,-0.09375 -0.416015,-0.140625 -0.02559,-0.0326 -0.03175,-0.07487 -0.0418,-0.113918 -0.0076,-0.03255 -0.01631,-0.065 -0.02265,-0.09771 -0.0014,-0.01815 0.0068,-0.036 0.002,-0.054 -0.0087,-0.07383 -0.01256,-0.148119 -0.01651,-0.22232 -0.0016,-0.0259 -0.0011,-0.05204 -0.004,-0.0778 -0.01125,-0.05375 -0.01887,-0.10814 -0.02452,-0.162744 -0.0056,-0.04493 -0.0079,-0.09023 -0.008,-0.135463 -0.0042,-0.03963 -0.01443,-0.07851 -0.01527,-0.118471 -0.0041,-0.0301 -0.0085,-0.06017 -0.0102,-0.0905 -0.0042,-0.02383 0.0019,-0.04796 0.0015,-0.07196 7.13e-4,-0.02751 0.0057,-0.05509 8.81e-4,-0.08251 -0.0097,-0.076805 -0.01032,-0.1543326 -0.01363,-0.2315866 -0.0021,-0.064256 -0.0047,-0.128482 -0.0095,-0.192602 -0.0074,-0.11031 -0.01137,-0.220812 -0.01893,-0.331113 -0.0047,-0.081102 -0.01035,-0.162177 -0.01455,-0.243295 -0.0011,-0.02305 0.01054,-0.045909 0.0039,-0.068927 -0.01302,-0.070964 -0.02604,-0.141927 -0.03906,-0.212891 -0.01245,-0.033741 -0.02472,-0.067616 -0.03267,-0.102755 -0.0049,-0.015893 -0.0083,-0.032332 -0.01344,-0.048049 -0.01415,-0.028766 -0.02538,-0.058889 -0.03885,-0.087985 -0.01577,-0.040387 -0.03138,-0.080847 -0.0503,-0.119895 -0.02537,-0.055863 -0.05065,-0.112189 -0.08542,-0.162981 -0.03155,-0.0497 -0.06149,-0.100408 -0.09317,-0.150032 -0.04858,-0.079403 -0.101266,-0.156174 -0.152491,-0.233875 -0.04691,-0.069901 -0.09298,-0.140409 -0.140419,-0.209933 -0.04271,-0.055602 -0.08645,-0.110482 -0.134291,-0.161797 -0.07866,-0.085818 -0.155516,-0.173273 -0.233339,-0.259849 -0.162123,-0.186804 -0.325349,-0.372644 -0.488496,-0.558552 -0.01169,-0.011715 -0.02491,-0.021852 -0.03735,-0.032736 -0.104739,-0.071119 -0.209478,-0.142238 -0.314217,-0.213358 -0.0571,-0.027787 -0.114757,-0.054353 -0.172978,-0.0797 -0.397839,-0.175778 -0.795864,-0.351146 -1.19359,-0.527172 -0.01499,-0.00607 -0.02887,-0.014026 -0.04148,-0.024156 -0.03008,-0.022584 -0.06344,-0.041278 -0.09,-0.06819 -0.0077,-0.015692 -0.02361,-0.026258 -0.02706,-0.044083 -0.0164,-0.060094 -0.03061,-0.120829 -0.04616,-0.181171 -0.01337,-0.053669 -0.02794,-0.107063 -0.03811,-0.161465 0.0068,-0.022581 0.0029,-0.046339 0.0039,-0.069552 -8e-4,-0.024453 6.63e-4,-0.048786 0.0039,-0.073026 -0.0013,-0.032056 -0.0032,-0.06435 -0.0013,-0.096317 0.0066,-0.018759 0.0039,-0.038709 0.0072,-0.05798 -7.62e-4,-0.022257 5.75e-4,-0.04439 0.0039,-0.066406 -8.5e-4,-0.046085 0.0014,-0.092151 0.007,-0.137912 0.0021,-0.020551 0.0062,-0.040916 0.0048,-0.061682 -0.0019,-0.030245 -0.0087,-0.060086 -0.01001,-0.090445 -0.0014,-0.022342 -0.0042,-0.044818 -0.01343,-0.06543 -0.04044,-0.119433 -0.08078,-0.2389 -0.123199,-0.35765 -0.01244,-0.035371 -0.02574,-0.070478 -0.03442,-0.10702 -0.01457,-0.051042 -0.03314,-0.100819 -0.05135,-0.150639 -0.02052,-0.051033 -0.04051,-0.102269 -0.05861,-0.154222 -0.01621,-0.038949 -0.0308,-0.078544 -0.0487,-0.116774 -0.01756,-0.039865 -0.0357,-0.079499 -0.05487,-0.118588 -0.0067,-0.017857 -0.01456,-0.035146 -0.02527,-0.050998 -0.02574,-0.045771 -0.04855,-0.093199 -0.07647,-0.137747 -0.01867,-0.031954 -0.03518,-0.065181 -0.05664,-0.095439 -0.0515,-0.078734 -0.103187,-0.157362 -0.155286,-0.235694 -0.02201,-0.03192 -0.04403,-0.064321 -0.07118,-0.092088 -0.02356,-0.017384 -0.04385,-0.03944 -0.07099,-0.051544 -0.05983,-0.030044 -0.11938,-0.060714 -0.179384,-0.090369 -0.05167,-0.019846 -0.102781,-0.041268 -0.155714,-0.057627 -0.06341,-0.021191 -0.127071,-0.041693 -0.191086,-0.060946 -0.09083,-0.025348 -0.181514,-0.051457 -0.272491,-0.076171 -0.06968,-0.010156 -0.139284,-0.021356 -0.209014,-0.030859 -0.03383,-2.76e-4 -0.06775,5.46e-4 -0.101531,-4.02e-4 -0.03274,-0.0053 -0.06564,-0.010875 -0.09895,-0.00936 -0.03464,-0.00321 -0.06912,-0.00943 -0.104015,-0.00781 -0.0344,0.00257 -0.06879,0.00667 -0.103049,0.010972 -0.03581,0.00541 -0.07216,0.0061 -0.10819,0.00968 -0.02783,0.00149 -0.05565,0.00672 -0.0835,0.00305 -0.02936,-2.11e-4 -0.05893,-8.58e-4 -0.08821,3.17e-4 -0.02141,0.00629 -0.04373,0.00542 -0.06578,0.00529 -0.02199,0.00425 -0.04412,0.00752 -0.06641,0.00977 -0.07552,0.027344 -0.151041,0.054688 -0.226562,0.082031 -0.01508,0.00353 -0.03056,0.00541 -0.04492,-0.00195 -0.04226,-0.01974 -0.08617,-0.03671 -0.124871,-0.063151 -0.04257,-0.024396 -0.08654,-0.046853 -0.125129,-0.077474 -0.01341,-0.015812 -0.01854,-0.036285 -0.02734,-0.054687 -0.01892,-0.048824 -0.0335,-0.099126 -0.0467,-0.149753 -0.01975,-0.071999 -0.0429,-0.143053 -0.0603,-0.215693 -0.0081,-0.029109 -0.01313,-0.059249 -0.0258,-0.086881 -0.03085,-0.078219 -0.06215,-0.156288 -0.09532,-0.233545 -0.02482,-0.054272 -0.04904,-0.108891 -0.07531,-0.162452 -0.04643,-0.079298 -0.09204,-0.159112 -0.138978,-0.238088 -0.0666,-0.098755 -0.133527,-0.197304 -0.203556,-0.293671 -0.0252,-0.035453 -0.0505,-0.070824 -0.0779,-0.104619 -0.04946,-0.066199 -0.102156,-0.129908 -0.153075,-0.194986 -0.01279,-0.009838 -0.03017,-0.009703 -0.04297,-0.019531 -0.04231,-0.015164 -0.08472,-0.030009 -0.12806,-0.041978 -0.08897,-0.026304 -0.177906,-0.052714 -0.267612,-0.076408 -0.08102,-0.021663 -0.161576,-0.045093 -0.242999,-0.065208 -0.02738,-0.005274 -0.05536,-0.005852 -0.08271,-0.011505 -0.02739,-2.2e-5 -0.05483,-3.28e-4 -0.08215,-0.00287 -0.04239,-0.002657 -0.08495,-5.96e-4 -0.127409,-0.00125 -0.08964,-2.39e-4 -0.179348,4.78e-4 -0.26895,-3.57e-4 -0.0265,-0.004285 -0.05315,-0.006814 -0.07999,-0.007304 -0.212911,-0.004314 -0.425876,-0.007592 -0.638765,-0.012162 -0.02207,-0.002013 -0.04397,-0.005241 -0.06573,-0.009474 -0.05147,9.2e-4 -0.102906,0.002823 -0.154297,0.00586 -0.01469,0.003458 -0.02971,0.010577 -0.04492,0.005859 -0.110624,-0.006874 -0.221301,-0.012734 -0.332031,-0.017578 -0.0855,-0.004794 -0.171073,-0.008831 -0.256518,-0.014096 -0.15538,-0.025249 -0.310759,-0.050498 -0.466139,-0.075748 -0.04232,0.002605 -0.08463,0.005209 -0.126953,0.007813 -0.02591,-0.003686 -0.05182,-0.009034 -0.07813,-0.007813 -0.01167,-0.002892 -0.02329,-0.005985 -0.03516,-0.001953 z"
       id="path4" />
    <path
       style="fill:#444f40;fill-opacity:1;stroke:#000000;stroke-width:1;stroke-linecap:round;stroke-linejoin:round;stroke-dasharray:none;stroke-dashoffset:24.378;stroke-opacity:1"
       d="m 10.616677,34.352276 0.919389,-11.171657 2.976563,-0.661459 -0.264583,2.315104 h 0.396875 l 1.389062,-7.54081 5.357812,-0.462835 -0.132291,4.828645 0.79375,-4.894791 3.571875,0.528981 0.919792,6.350185 V 19.34416 l 1.792187,-0.198437 0.332343,15.237392 c -1.87813,0.855142 -2.853179,0.731504 -4.410943,0.829571 -2.045088,0.128746 -3.535663,-0.28387 -5.157434,-0.333839 -1.619481,-0.0499 -2.056356,0.454629 -3.999501,0.454629 -1.370823,0 -3.106678,0.10248 -4.484896,-0.9812 z"
       id="path5" />
  </g>
  <ellipse
     style="fill:#ffffff;stroke:none;stroke-width:1;stroke-linecap:round;stroke-linejoin:round;stroke-dashoffset:24.378"
     id="path21"
     cx="11.99814"
     cy="31.242975"
     rx="0.70225722"
     ry="1.3596896" />
</svg>
